<svg xmlns="http://www.w3.org/2000/svg" xmlns:xlink="http://www.w3.org/1999/xlink" width="48" zoomAndPan="magnify" viewBox="0 0 36 30.000001" height="40" preserveAspectRatio="xMidYMid meet" version="1.0"><defs><clipPath id="493a3982d7"><path d="M 0.582031 2.902344 L 35.417969 2.902344 L 35.417969 27.582031 L 0.582031 27.582031 Z M 0.582031 2.902344 " clip-rule="nonzero"/></clipPath><clipPath id="d7927abd1f"><path d="M 18 2.902344 L 35.417969 2.902344 L 35.417969 16 L 18 16 Z M 18 2.902344 " clip-rule="nonzero"/></clipPath><clipPath id="61e2d277ad"><path d="M 0.582031 15 L 18 15 L 18 27.582031 L 0.582031 27.582031 Z M 0.582031 15 " clip-rule="nonzero"/></clipPath><clipPath id="24e57d5cb2"><path d="M 0.582031 2.902344 L 35.417969 2.902344 L 35.417969 27.582031 L 0.582031 27.582031 Z M 0.582031 2.902344 " clip-rule="nonzero"/></clipPath><clipPath id="4734193815"><path d="M 0.582031 15 L 18 15 L 18 27.582031 L 0.582031 27.582031 Z M 0.582031 15 " clip-rule="nonzero"/></clipPath><clipPath id="ef087e8909"><path d="M 18 2.902344 L 35.417969 2.902344 L 35.417969 16 L 18 16 Z M 18 2.902344 " clip-rule="nonzero"/></clipPath><clipPath id="9d8c83a5b7"><path d="M 0.582031 11 L 35.417969 11 L 35.417969 19 L 0.582031 19 Z M 0.582031 11 " clip-rule="nonzero"/></clipPath><clipPath id="430410c39b"><path d="M 14 2.902344 L 22 2.902344 L 22 27.582031 L 14 27.582031 Z M 14 2.902344 " clip-rule="nonzero"/></clipPath><clipPath id="3e93ec6665"><path d="M 0.582031 13 L 35.417969 13 L 35.417969 18 L 0.582031 18 Z M 0.582031 13 " clip-rule="nonzero"/></clipPath><clipPath id="44dd419d32"><path d="M 16 2.902344 L 21 2.902344 L 21 27.582031 L 16 27.582031 Z M 16 2.902344 " clip-rule="nonzero"/></clipPath></defs><g clip-path="url(#493a3982d7)"><path fill="#21418e" d="M 0.597656 2.902344 L 0.597656 27.582031 L 35.402344 27.582031 L 35.402344 2.902344 L 0.597656 2.902344 " fill-opacity="1" fill-rule="nonzero"/></g><g clip-path="url(#d7927abd1f)"><path fill="#f2f2f2" d="M 21.894531 15.242188 L 35.402344 5.664062 L 35.402344 2.902344 L 31.503906 2.902344 L 18 12.480469 L 21.894531 15.242188 " fill-opacity="1" fill-rule="nonzero"/></g><g clip-path="url(#61e2d277ad)"><path fill="#f2f2f2" d="M 0.597656 27.582031 L 4.496094 27.582031 L 18 18.003906 L 14.105469 15.242188 L 0.597656 24.820312 L 0.597656 27.582031 " fill-opacity="1" fill-rule="nonzero"/></g><g clip-path="url(#24e57d5cb2)"><path fill="#f2f2f2" d="M 18 18.003906 L 31.503906 27.582031 L 35.402344 27.582031 L 35.402344 24.820312 L 21.894531 15.242188 L 18 12.480469 L 4.496094 2.902344 L 0.597656 2.902344 L 0.597656 5.664062 L 14.105469 15.242188 L 18 18.003906 " fill-opacity="1" fill-rule="nonzero"/><path fill="#e40001" d="M 18 15.242188 L 35.402344 27.582031 L 35.402344 25.835938 L 20.445312 15.242188 L 18 15.242188 L 0.597656 2.902344 L 0.597656 4.703125 L 15.441406 15.242188 L 18 15.242188 " fill-opacity="1" fill-rule="nonzero"/></g><g clip-path="url(#4734193815)"><path fill="#e40001" d="M 0.597656 27.582031 L 3.15625 27.582031 L 18 17.097656 L 18 15.242188 L 0.597656 27.582031 " fill-opacity="1" fill-rule="nonzero"/></g><g clip-path="url(#ef087e8909)"><path fill="#e40001" d="M 18 15.242188 L 35.402344 2.902344 L 32.84375 2.902344 L 18 13.441406 L 18 15.242188 " fill-opacity="1" fill-rule="nonzero"/></g><g clip-path="url(#9d8c83a5b7)"><path fill="#f2f2f2" d="M 0.597656 11.664062 L 0.597656 18.761719 L 35.402344 18.761719 L 35.402344 11.664062 L 0.597656 11.664062 " fill-opacity="1" fill-rule="nonzero"/></g><g clip-path="url(#430410c39b)"><path fill="#f2f2f2" d="M 14.535156 2.902344 L 14.535156 27.582031 L 21.507812 27.582031 L 21.507812 2.902344 L 14.535156 2.902344 " fill-opacity="1" fill-rule="nonzero"/></g><g clip-path="url(#3e93ec6665)"><path fill="#e40001" d="M 0.597656 13.140625 L 0.597656 17.261719 L 35.402344 17.261719 L 35.402344 13.140625 L 0.597656 13.140625 " fill-opacity="1" fill-rule="nonzero"/></g><g clip-path="url(#44dd419d32)"><path fill="#e40001" d="M 16.035156 2.902344 L 16.035156 27.582031 L 20.050781 27.582031 L 20.050781 2.902344 L 16.035156 2.902344 " fill-opacity="1" fill-rule="nonzero"/></g></svg>